<?xml version="1.0" standalone="no"?> <!DOCTYPE svg PUBLIC "-//W3C//DTD SVG 1.0//EN" "http://www.w3.org/TR/2001/REC-SVG-20010904/DTD/svg10.dtd" > <svg xmlns="http://www.w3.org/2000/svg" width="100%" height="100%">
<defs >
<font id="vagroundedbt" horiz-adv-x="964" ><font-face
    font-family="VAGRounded BT"
    units-per-em="2048"
    panose-1="2 15 7 2 2 2 4 2 2 4"
    ascent="2026"
    descent="-483"
    alphabetic="0" />
<missing-glyph horiz-adv-x="1229" d="M102 -362V1444H1126V-362H102ZM217 -248H1012V1329H217V-248Z" />
<glyph unicode=" " glyph-name="space" horiz-adv-x="664" />
<glyph unicode="!" glyph-name="exclam" horiz-adv-x="606" d="M463 662Q463 542 424 484T303 426Q223 426 183 484T143 662V1264Q143 1381 183 1439T303 1497Q384 1497 423 1440T463 1264V662ZM125 137Q125 212 177 263T303 315Q377 315 429 263T481 137Q481
63 429 10T303 -43Q229 -43 177 9T125 137Z" />
<glyph unicode="&quot;" glyph-name="quotedbl" horiz-adv-x="678" d="M406 1438H598V879H406V1438ZM80 1438H272V879H80V1438Z" />
<glyph unicode="#" glyph-name="numbersign" horiz-adv-x="1575" d="M709 848L621 604H872L958 848H709ZM709 1464H930L784 1049H1026L1174 1464H1395L1247 1049H1530L1456 848H1176L1092 606H1382L1311 406H1020L872 -10H651L799 406H555L406 -10H186L332 406H45L121
606H403L489 848H190L264 1049H561L709 1464Z" />
<glyph unicode="$" glyph-name="dollar" horiz-adv-x="1128" d="M471 -39Q278 -20 165 44T51 195Q51 262 95 303T215 344Q252 344 370 307T569 270Q639 270 686 313T733 420Q733 489 685 531T479 621Q250 689 159 782T68 1034Q68 1205 176 1327T471 1487V1589Q471
1647 490 1673T553 1700Q598 1700 616 1676T635 1589V1495Q802 1482 897 1424T993 1280Q993 1214 954 1177T844 1139Q805 1139 717 1164T584 1190Q510 1190 466 1156T422 1065Q422 976 616 915Q661 901 686 893Q895 823 991 717T1087 451Q1087 260 962 125T635
-33V-168Q635 -225 615 -253T553 -281Q509 -281 490 -255T471 -168V-39Z" />
<glyph unicode="%" glyph-name="percent" horiz-adv-x="1432" d="M489 82Q455 22 420 -6T346 -35Q297 -35 264 -1T231 84Q231 111 239 137T262 190L938 1370Q975 1434 1007 1459T1081 1485Q1131 1485 1164 1453T1198 1370Q1198 1348 1190 1321T1163 1262L489 82ZM993
307Q993 263 1024 231T1098 199Q1141 199 1171 231T1202 307Q1202 353 1172 384T1098 416Q1054 416 1024 385T993 307ZM784 307Q784 444 875 538T1098 633Q1228 633 1319 538T1411 307Q1411 172 1320 77T1098 -18Q966 -18 875 76T784 307ZM229 1149Q229 1104 260
1072T334 1040Q377 1040 408 1072T440 1149Q440 1194 409 1225T334 1257Q290 1257 260 1226T229 1149ZM20 1149Q20 1286 111 1380T334 1475Q464 1475 555 1380T647 1149Q647 1013 556 918T334 823Q202 823 111 917T20 1149Z" />
<glyph unicode="&amp;" glyph-name="ampersand" horiz-adv-x="1403" d="M655 965Q738 999 777 1042T817 1141Q817 1189 774 1227T674 1266Q618 1266 580 1231T541 1147Q541 1107 568 1063T655 965ZM819 334L551 641Q464 601 418 542T371 414Q371 330 425 277T567
223Q629 223 693 251T819 334ZM989 121Q901 40 784 -1T528 -43Q317 -43 179 85T41 408Q41 551 124 662T377 856Q306 932 272 1005T238 1155Q238 1303 356 1400T659 1497Q845 1497 963 1396T1081 1141Q1081 1027 1021 936T834 768L1032 532Q1136 660 1181 694T1270
729Q1321 729 1358 689T1395 592Q1395 540 1355 482T1210 326Q1294 229 1315 188T1337 109Q1337 49 1297 9T1198 -31Q1155 -31 1110 1T989 121Z" />
<glyph unicode="&apos;" glyph-name="quotesingle" horiz-adv-x="352" d="M80 1438H272V879H80V1438Z" />
<glyph unicode="(" glyph-name="parenleft" horiz-adv-x="664" d="M422 666Q422 407 495 150T569 -117Q569 -177 536 -210T442 -244Q394 -244 356 -209T287 -98Q218 64 181 262T143 666Q143 855 176 1040T272 1389Q312 1491 350 1533T442 1575Q502 1575 535 1542T569
1448Q569 1438 496 1180T422 666Z" />
<glyph unicode=")" glyph-name="parenright" horiz-adv-x="664" d="M242 666Q242 923 168 1180T94 1448Q94 1509 127 1542T221 1575Q270 1575 308 1540T377 1430Q445 1270 482 1071T520 666Q520 479 487 295T391 -57Q353 -158 314 -201T221 -244Q161 -244 128
-211T94 -117Q94 -105 168 153T242 666Z" />
<glyph unicode="*" glyph-name="asterisk" horiz-adv-x="1024" d="M432 968Q415 956 386 931Q304 862 254 862Q216 862 188 893T160 965Q160 1038 335 1099Q348 1104 354 1106Q348 1108 335 1113Q160 1174 160 1247Q160 1288 188 1319T254 1350Q305 1350 389 1280Q417
1257 432 1246Q429 1271 421 1318T412 1386Q412 1437 439 1467T512 1497Q558 1497 586 1468T614 1389Q614 1364 605 1317T592 1246Q603 1254 624 1272Q718 1350 770 1350Q808 1350 836 1319T864 1247Q864 1204 831 1176T670 1106Q799 1063 831 1035T864 965Q864
924 836 893T770 862Q719 862 628 939Q605 958 592 968Q595 944 604 896T614 825Q614 775 586 745T512 715Q466 715 439 745T412 825Q412 847 420 895T432 968Z" />
<glyph unicode="+" glyph-name="plus" horiz-adv-x="1706" d="M752 1221H954V711H1452V512H954V0H752V512H254V711H752V1221Z" />
<glyph unicode="," glyph-name="comma" horiz-adv-x="473" d="M207 -195Q177 -250 141 -278T63 -307Q8 -307 -32 -270T-72 -178Q-72 -156 -64 -130T-39 -76L123 219Q155 278 189 305T266 332Q323 332 362 296T401 205Q401 183 393 158T369 100L207 -195Z" />
<glyph unicode="-" glyph-name="hyphen" horiz-adv-x="877" d="M229 428Q154 428 112 465T70 569Q70 636 112 672T231 709H647Q722 709 764 671T807 567Q807 499 766 464T645 428H229Z" />
<glyph unicode="." glyph-name="period" horiz-adv-x="473" d="M51 172Q51 249 106 303T238 358Q314 358 368 304T422 172Q422 94 369 40T238 -14Q159 -14 105 40T51 172Z" />
<glyph unicode="/" glyph-name="slash" horiz-adv-x="758" d="M186 72Q155 11 120 -18T43 -47Q-13 -47 -52 -10T-92 82Q-92 104 -85 128T-63 180L573 1382Q609 1448 642 1474T717 1501Q774 1501 813 1465T852 1374Q852 1354 845 1330T821 1274L186 72Z" />
<glyph unicode="0" glyph-name="zero" horiz-adv-x="1327" d="M666 1192Q544 1192 474 1069T403 729Q403 511 473 388T666 264Q788 264 858 387T928 729Q928 945 858 1068T666 1192ZM57 727Q57 1082 221 1289T664 1497Q942 1497 1107 1290T1272 727Q1272 372 1107
165T664 -43Q386 -43 222 164T57 727Z" />
<glyph unicode="1" glyph-name="one" horiz-adv-x="735" d="M563 221Q563 102 522 44T395 -14Q310 -14 269 44T227 221V1149H197Q87 1149 30 1188T-27 1303Q-27 1380 31 1418T209 1456H375Q476 1456 519 1402T563 1221V221Z" />
<glyph unicode="2" glyph-name="two" horiz-adv-x="1071" d="M795 307Q914 307 972 269T1030 154Q1030 76 972 38T795 0H207Q106 0 57 38T8 154Q8 224 209 443Q250 487 272 512Q493 755 567 866T641 1049Q641 1110 606 1149T516 1188Q466 1188 426 1150T358 1038Q322
937 288 904T197 870Q124 870 79 917T33 1040Q33 1102 61 1176T135 1309Q209 1400 309 1448T526 1497Q733 1497 863 1376T993 1065Q993 923 895 767T489 307H795Z" />
<glyph unicode="3" glyph-name="three" horiz-adv-x="1110" d="M788 801Q911 737 970 645T1030 428Q1030 227 882 92T510 -43Q420 -43 338 -15T182 70Q97 135 49 213T0 360Q0 430 42 474T150 518Q192 518 224 499T297 426Q302 419 311 406Q412 266 514 266Q588
266 639 319T690 453Q690 529 646 567T479 625Q402 637 371 670T340 772Q340 835 370 867T479 918Q556 936 593 972T631 1067Q631 1124 599 1158T512 1192Q448 1192 364 1115L360 1112Q354 1106 339 1092Q253 1010 184 1010Q128 1010 88 1050T47 1149Q47 1278 191
1387T518 1497Q705 1497 829 1383T954 1100Q954 1008 914 936T788 801Z" />
<glyph unicode="4" glyph-name="four" horiz-adv-x="1276" d="M379 606H721V1163L379 606ZM1024 313V160Q1024 75 982 29T862 -18Q790 -18 756 28T721 170V313H207Q104 313 55 345T6 442Q6 511 74 616Q80 627 84 633L518 1319Q573 1406 629 1441T764 1477Q886
1477 955 1389T1024 1141V606H1042H1073Q1156 606 1204 569T1253 467Q1253 389 1204 351T1055 313H1024Z" />
<glyph unicode="5" glyph-name="five" horiz-adv-x="1053" d="M412 975Q449 984 485 988T553 993Q741 993 866 856T991 510Q991 270 836 114T440 -43Q252 -43 114 45T-25 248Q-25 312 14 353T113 395Q156 395 257 333T436 270Q522 270 582 334T643 492Q643 586
594 641T459 696Q416 696 335 671T215 645Q152 645 119 681T86 788Q86 800 88 823T96 901L143 1280Q155 1380 198 1418T360 1456H764Q869 1456 923 1417T977 1303Q977 1229 926 1190T776 1151H434L412 975Z" />
<glyph unicode="6" glyph-name="six" horiz-adv-x="1147" d="M383 467Q383 383 438 324T571 264Q649 264 704 323T760 467Q760 550 705 609T571 668Q494 668 439 609T383 467ZM570 930Q611 935 638 937T686 940Q859 940 980 805T1102 471Q1102 255 945 106T557
-43Q333 -43 189 105T45 483Q45 640 130 826T385 1223Q511 1379 584 1440T713 1501Q776 1501 824 1455T872 1348Q872 1287 753 1155T570 930Z" />
<glyph unicode="7" glyph-name="seven" horiz-adv-x="963" d="M571 1151H195Q69 1151 20 1185T-29 1298Q-29 1376 22 1416T170 1456H715Q836 1456 896 1411T956 1274Q956 1250 947 1217T922 1149L442 113Q405 33 363 -5T268 -43Q195 -43 146 3T96 119Q96 146 106
179T141 264L571 1151Z" />
<glyph unicode="8" glyph-name="eight" horiz-adv-x="1118" d="M408 1057Q408 996 453 950T559 903Q622 903 666 948T711 1057Q711 1121 667 1166T559 1212Q498 1212 454 1167T408 1057ZM362 463Q362 376 420 315T559 254Q641 254 698 314T756 463Q756 551 699
612T559 674Q478 674 420 613T362 463ZM225 797Q159 855 126 928T92 1087Q92 1262 225 1379T559 1497Q759 1497 892 1380T1026 1087Q1026 1001 993 928T893 797Q989 734 1038 642T1087 432Q1087 229 938 93T559 -43Q330 -43 181 93T31 432Q31 550 80 643T225 797Z"
/>
<glyph unicode="9" glyph-name="nine" horiz-adv-x="1147" d="M578 528Q528 522 506 520T471 518Q291 518 168 651T45 979Q45 1199 201 1349T590 1499Q814 1499 957 1353T1100 975Q1100 817 1014 630T760 233Q632 75 561 15T434 -45Q371 -45 323 2T274 111Q274
171 394 303T578 528ZM764 991Q764 1075 709 1133T575 1192Q498 1192 443 1134T387 991Q387 907 442 849T575 791Q653 791 708 849T764 991Z" />
<glyph unicode=":" glyph-name="colon" horiz-adv-x="473" d="M51 793Q51 869 105 923T238 977Q314 977 368 923T422 793Q422 715 369 661T238 606Q159 606 105 660T51 793ZM51 172Q51 249 106 303T238 358Q314 358 368 304T422 172Q422 94 369 40T238 -14Q159
-14 105 40T51 172Z" />
<glyph unicode=";" glyph-name="semicolon" horiz-adv-x="473" d="M207 -195Q177 -250 141 -278T63 -307Q8 -307 -32 -270T-72 -178Q-72 -156 -64 -130T-39 -76L123 219Q155 278 189 305T266 332Q323 332 362 296T401 205Q401 183 393 158T369 100L207 -195ZM51
793Q51 869 105 923T238 977Q314 977 368 923T422 793Q422 715 369 661T238 606Q159 606 105 660T51 793Z" />
<glyph unicode="&lt;" glyph-name="less" horiz-adv-x="1706" d="M1442 1194V975L549 610L1442 246V27L264 512V711L1442 1194Z" />
<glyph unicode="=" glyph-name="equal" horiz-adv-x="1706" d="M254 496H1452V297H254V496ZM254 926H1452V727H254V926Z" />
<glyph unicode="&gt;" glyph-name="greater" horiz-adv-x="1706" d="M264 1194L1442 711V512L264 27V246L1159 610L264 975V1194Z" />
<glyph unicode="?" glyph-name="question" horiz-adv-x="1042" d="M315 584V713Q315 770 330 798T385 844Q405 853 453 863T526 885Q584 907 612 948T641 1049Q641 1104 599 1144T498 1184Q445 1184 402 1163T309 1087Q303 1081 290 1067Q207 975 143 975Q86 975
48 1017T10 1124Q10 1264 155 1377T498 1491Q709 1491 849 1360T989 1034Q989 867 892 751T631 604V598Q631 504 588 451T471 397Q397 397 356 445T315 584ZM293 137Q293 212 345 263T473 315Q547 315 599 263T651 137Q651 63 599 10T473 -43Q399 -43 346 10T293
137Z" />
<glyph unicode="@" glyph-name="at" horiz-adv-x="2048" d="M1167 272Q1112 188 1040 149T870 109Q712 109 630 195T547 449Q547 688 686 850T1030 1012Q1110 1012 1169 979T1266 881L1319 979H1497L1350 381Q1347 370 1346 359T1343 340Q1343 305 1367 288T1438
270Q1477 270 1519 290T1599 346Q1685 426 1729 533T1774 768Q1774 1008 1589 1162T1110 1317Q969 1317 848 1283T627 1182Q457 1068 366 897T274 522Q274 215 481 32T1034 -152Q1196 -152 1350 -103T1638 39L1720 -78Q1567 -193 1396 -251T1038 -309Q846 -309
685 -261T399 -117Q244 4 167 162T90 520Q90 687 142 838T297 1114Q445 1295 653 1388T1116 1481Q1285 1481 1433 1436T1692 1307Q1827 1202 1893 1068T1960 764Q1960 599 1895 460T1706 221Q1636 165 1554 136T1382 106Q1276 106 1223 148T1167 272ZM1217 700Q1204
781 1160 823T1042 866Q928 866 844 742T760 444Q760 352 800 304T918 256Q1001 256 1069 319T1163 483L1217 700Z" />
<glyph unicode="A" glyph-name="A" horiz-adv-x="1280" d="M367 274L317 127Q293 54 253 16T158 -23Q89 -23 45 22T0 137Q0 165 4 189T16 233L395 1262Q436 1373 497 1425T649 1477Q734 1477 796 1428T893 1284L1262 238Q1273 205 1278 179T1284 133Q1284 64 1238
21T1120 -23Q1056 -23 1014 17T946 139L905 274H367ZM461 580H809L641 1120L461 580Z" />
<glyph unicode="B" glyph-name="B" horiz-adv-x="1262" d="M461 889H600Q674 889 719 928T764 1030Q764 1096 719 1135T596 1174H461V889ZM461 285H627Q737 285 794 327T852 449Q852 532 796 572T621 612H461V285ZM354 0Q225 0 177 44T129 209V1223Q129 1356 180
1406T358 1456H631Q847 1456 966 1361T1085 1094Q1085 987 1041 917T905 807Q1048 772 1124 677T1200 438Q1200 232 1064 116T682 0H354Z" />
<glyph unicode="C" glyph-name="C" horiz-adv-x="1233" d="M770 -43Q449 -43 253 168T57 727Q57 1066 260 1281T774 1497Q957 1497 1083 1427T1210 1264Q1210 1204 1168 1159T1069 1114Q1037 1114 940 1142T776 1171Q613 1171 516 1049T418 719Q418 516 517 398T786
279Q864 279 964 316T1096 354Q1147 354 1188 310T1229 209Q1229 106 1097 32T770 -43Z" />
<glyph unicode="D" glyph-name="D" horiz-adv-x="1427" d="M461 307H612Q811 307 909 416T1008 745Q1008 947 908 1047T606 1147H461V307ZM625 1456Q764 1456 870 1431T1059 1354Q1203 1262 1285 1100T1368 743Q1368 400 1178 200T657 0H354Q225 0 177 44T129
209V1223Q129 1356 180 1406T358 1456H625Z" />
<glyph unicode="E" glyph-name="E" horiz-adv-x="1034" d="M731 1456Q849 1456 908 1418T967 1300Q967 1223 909 1185T731 1147H461V887H694Q813 887 871 849T930 733Q930 655 872 618T694 580H461V307H741Q861 307 919 269T977 154Q977 76 919 38T741 0H354Q225
0 177 44T129 209V1223Q129 1356 180 1406T358 1456H731Z" />
<glyph unicode="F" glyph-name="F" horiz-adv-x="999" d="M731 1456Q849 1456 908 1418T967 1300Q967 1223 909 1185T731 1147H461V887H694Q813 887 871 849T930 733Q930 655 872 618T694 580H461V217Q461 98 420 40T295 -18Q211 -18 170 40T129 217V1223Q129
1356 180 1406T358 1456H731Z" />
<glyph unicode="G" glyph-name="G" horiz-adv-x="1479" d="M1075 567H958Q838 567 782 604T725 721Q725 800 782 838T958 877H1202Q1326 877 1380 825T1434 655Q1434 344 1247 151T754 -43Q447 -43 252 172T57 729Q57 1082 256 1290T793 1499Q1016 1499 1172 1407T1329
1196Q1329 1134 1287 1087T1188 1040Q1151 1040 1023 1111T782 1182Q613 1182 515 1063T416 735Q416 524 515 399T780 274Q912 274 992 353T1075 567Z" />
<glyph unicode="H" glyph-name="H" horiz-adv-x="1532" d="M461 588V217Q461 98 420 40T295 -18Q211 -18 170 40T129 217V1239Q129 1358 170 1416T295 1475Q379 1475 420 1417T461 1239V895H1071V1239Q1071 1358 1112 1416T1237 1475Q1321 1475 1362 1417T1403
1239V217Q1403 98 1362 40T1237 -18Q1153 -18 1112 40T1071 217V588H461Z" />
<glyph unicode="I" glyph-name="I" horiz-adv-x="606" d="M469 217Q469 98 428 40T303 -18Q219 -18 178 40T137 217V1239Q137 1358 178 1416T303 1475Q387 1475 428 1417T469 1239V217Z" />
<glyph unicode="J" glyph-name="J" horiz-adv-x="918" d="M459 551V1239Q459 1358 500 1416T625 1475Q708 1475 749 1417T791 1239V444Q791 206 683 84T365 -39Q202 -39 94 30T-14 201Q-14 268 28 311T139 354Q182 354 250 318T350 281Q409 281 434 339T459 551Z" />
<glyph unicode="K" glyph-name="K" horiz-adv-x="1262" d="M883 1356Q940 1421 978 1445T1055 1470Q1115 1470 1159 1425T1204 1319Q1204 1280 1184 1240T1120 1155L762 782L1206 299Q1247 254 1268 212T1290 135Q1290 74 1243 28T1137 -18Q1097 -18 1062 2T958
98L461 647V217Q461 98 420 40T295 -18Q211 -18 170 40T129 217V1239Q129 1358 170 1416T295 1475Q379 1475 420 1417T461 1239V879L883 1356Z" />
<glyph unicode="L" glyph-name="L" horiz-adv-x="944" d="M129 1239Q129 1358 170 1416T295 1475Q379 1475 420 1417T461 1239V307H741Q861 307 919 269T977 154Q977 76 919 38T741 0H354Q225 0 177 44T129 209V1239Z" />
<glyph unicode="M" glyph-name="M" horiz-adv-x="1767" d="M43 254L221 1247Q243 1370 295 1422T446 1475Q539 1475 596 1426T678 1278L899 408L1106 1280Q1129 1377 1186 1426T1333 1475Q1436 1475 1491 1420T1567 1235L1729 233Q1733 211 1735 191T1737 154Q1737
74 1691 27T1569 -20Q1499 -20 1458 28T1405 174L1300 1044Q1179 522 1121 306T1030 39Q1010 7 978 -6T891 -20Q807 -20 763 18T696 147L481 1044L367 195Q351 82 309 31T193 -20Q120 -20 76 27T31 154Q31 173 34 198T43 254Z" />
<glyph unicode="N" glyph-name="N" horiz-adv-x="1532" d="M461 217Q461 98 420 40T295 -18Q211 -18 170 40T129 217V1251Q129 1363 167 1418T283 1473Q333 1473 373 1449T459 1366L1071 557V1239Q1071 1358 1112 1416T1237 1475Q1321 1475 1362 1417T1403 1239V180Q1403
74 1366 24T1251 -27Q1199 -27 1154 2T1061 94L461 887V217Z" />
<glyph unicode="O" glyph-name="O" horiz-adv-x="1546" d="M418 723Q418 519 515 397T772 274Q932 274 1029 396T1126 723Q1126 934 1030 1058T772 1182Q610 1182 514 1058T418 723ZM57 727Q57 1072 254 1284T772 1497Q1093 1497 1291 1284T1489 727Q1489 381
1292 169T772 -43Q450 -43 254 169T57 727Z" />
<glyph unicode="P" glyph-name="P" horiz-adv-x="1241" d="M461 217Q461 98 420 40T295 -18Q211 -18 170 40T129 217V1223Q129 1356 180 1406T358 1456H657Q904 1456 1047 1323T1190 961Q1190 729 1056 598T684 467H461V217ZM461 768H604Q717 768 774 816T831
961Q831 1058 776 1104T604 1151H461V768Z" />
<glyph unicode="Q" glyph-name="Q" horiz-adv-x="1546" d="M883 295Q831 340 811 374T791 446Q791 504 827 543T918 582Q953 582 990 561T1083 485Q1105 544 1115 603T1126 723Q1126 934 1030 1058T772 1182Q610 1182 514 1058T418 723Q418 518 515 396T776 274Q804
274 829 279T883 295ZM1133 47Q1058 1 970 -21T772 -43Q450 -43 254 169T57 727Q57 1072 254 1284T772 1497Q1093 1497 1291 1284T1489 727Q1489 597 1455 479T1356 258L1458 164Q1491 134 1510 95T1530 20Q1530 -38 1488 -80T1389 -123Q1354 -123 1317 -106T1243
-55L1133 47Z" />
<glyph unicode="R" glyph-name="R" horiz-adv-x="1223" d="M461 575V217Q461 98 420 40T295 -18Q211 -18 170 40T129 217V1223Q129 1356 180 1406T358 1456H616Q875 1456 1023 1334T1171 1001Q1171 845 1079 741T823 608L1085 317Q1135 262 1159 215T1184 127Q1184
61 1139 16T1026 -29Q982 -29 942 -2T848 90L461 575ZM461 797H614Q715 797 770 844T825 977Q825 1060 771 1105T618 1151H461V797Z" />
<glyph unicode="S" glyph-name="S" horiz-adv-x="1128" d="M1087 451Q1087 232 932 97T522 -39Q327 -39 189 31T51 195Q51 262 95 303T215 344Q252 344 370 307T569 270Q639 270 686 313T733 420Q733 489 685 531T479 621Q250 689 159 782T68 1034Q68 1237 214
1366T596 1495Q769 1495 881 1434T993 1280Q993 1214 954 1177T844 1139Q805 1139 717 1164T584 1190Q510 1190 466 1156T422 1065Q422 976 616 915Q661 901 686 893Q895 823 991 717T1087 451Z" />
<glyph unicode="T" glyph-name="T" horiz-adv-x="967" d="M317 1147H195Q75 1147 17 1185T-41 1300Q-41 1379 17 1417T195 1456H772Q890 1456 949 1418T1008 1300Q1008 1223 950 1185T772 1147H649V217Q649 98 608 40T483 -18Q399 -18 358 40T317 217V1147Z" />
<glyph unicode="U" glyph-name="U" horiz-adv-x="1507" d="M129 625V1239Q129 1358 170 1416T295 1475Q379 1475 420 1417T461 1239V662Q461 469 534 372T754 274Q899 274 973 371T1047 662V1239Q1047 1358 1088 1416T1212 1475Q1296 1475 1337 1417T1378 1239V625Q1378
308 1213 133T754 -43Q459 -43 294 132T129 625Z" />
<glyph unicode="V" glyph-name="V" horiz-adv-x="1180" d="M436 96L-8 1210Q-17 1231 -22 1255T-27 1305Q-27 1376 22 1423T145 1470Q199 1470 233 1438T297 1327L604 500L889 1315Q918 1402 955 1436T1053 1470Q1128 1470 1171 1429T1214 1317Q1214 1289 1209
1260T1192 1202L762 109Q733 35 694 3T594 -29Q537 -29 501 0T436 96Z" />
<glyph unicode="W" glyph-name="W" horiz-adv-x="1872" d="M727 186Q702 87 641 35T487 -18Q392 -18 340 32T260 201L18 1254Q16 1266 15 1280T14 1327Q14 1395 60 1436T182 1477Q246 1477 288 1439T342 1331L516 406L758 1335Q776 1405 822 1440T942 1475Q1013
1475 1058 1439T1122 1331L1360 406L1534 1309Q1551 1397 1590 1436T1702 1475Q1774 1475 1820 1432T1866 1321Q1866 1299 1863 1274T1853 1223L1599 201Q1567 69 1518 26T1370 -18Q1280 -18 1227 27T1149 168L932 999L727 186Z" />
<glyph unicode="X" glyph-name="X" horiz-adv-x="1186" d="M295 109Q245 40 205 11T121 -18Q63 -18 17 27T-29 127Q-29 161 -15 195T45 295L399 788L133 1161Q89 1222 74 1257T59 1325Q59 1389 105 1432T221 1475Q263 1475 303 1445T391 1348L596 1061L805 1352Q851
1415 894 1446T981 1477Q1036 1477 1081 1432T1126 1333Q1126 1269 1054 1167L1053 1166L784 793L1139 293Q1142 288 1148 280Q1214 184 1214 125Q1214 69 1169 26T1063 -18Q1016 -18 974 11T883 106L588 520L295 109Z" />
<glyph unicode="Y" glyph-name="Y" horiz-adv-x="1057" d="M791 1352Q833 1412 879 1444T969 1477Q1024 1477 1069 1432T1114 1333Q1114 1271 1045 1174L1038 1165L702 686V217Q702 98 661 40T537 -18Q453 -18 412 40T371 217V686L35 1161Q35 1161 33 1164Q-39
1264 -39 1329Q-39 1389 7 1432T121 1475Q162 1475 203 1444T291 1348L539 993L791 1352Z" />
<glyph unicode="Z" glyph-name="Z" horiz-adv-x="1090" d="M887 307Q1006 307 1064 269T1122 154Q1122 76 1064 38T887 0H221Q103 0 46 41T-12 166Q-12 208 5 249T80 367L674 1155H246Q125 1155 68 1191T10 1305Q10 1380 69 1418T246 1456H809Q956 1456 1025 1417T1094
1294Q1094 1221 1003 1099L997 1091L418 307H887Z" />
<glyph unicode="[" glyph-name="bracketleft" horiz-adv-x="664" d="M496 1540Q571 1540 612 1512T653 1432Q653 1376 614 1349T494 1321H397V-84H496Q570 -84 611 -113T653 -195Q653 -250 614 -276T494 -303H346Q216 -303 168 -259T119 -94V1307Q119 1440 170
1490T348 1540H496Z" />
<glyph unicode="\" glyph-name="backslash" horiz-adv-x="758" d="M571 72L-63 1274Q-78 1303 -85 1327T-92 1374Q-92 1428 -53 1464T43 1501Q85 1501 118 1475T186 1382L821 181Q836 152 844 127T852 82Q852 28 812 -9T715 -47Q673 -47 638 -18T571 72Z" />
<glyph unicode="]" glyph-name="bracketright" horiz-adv-x="664" d="M168 1540H315Q442 1540 493 1490T545 1307V-94Q545 -215 497 -259T319 -303H170Q88 -303 49 -277T10 -195Q10 -142 51 -113T168 -84H266V1321H170Q89 1321 50 1348T10 1432Q10 1483 51 1511T168
1540Z" />
<glyph unicode="^" glyph-name="asciicircum" horiz-adv-x="2048" d="M897 1460H1149L1630 899H1395L1024 1270L651 899H416L897 1460Z" />
<glyph unicode="_" glyph-name="underscore" horiz-adv-x="1024" d="M0 -279H1024V-483H0V-279Z" />
<glyph unicode="`" glyph-name="grave" horiz-adv-x="1024" d="M451 1245L295 1417Q269 1446 256 1474T242 1528Q242 1583 278 1619T371 1655Q405 1655 435 1638T487 1589L637 1384Q654 1361 663 1339T672 1294Q672 1244 642 1213T561 1182Q534 1182 507 1197T451 1245Z" />
<glyph unicode="a" glyph-name="a" horiz-adv-x="1233" d="M807 98Q758 38 689 7T537 -25Q330 -25 189 138T47 545Q47 786 193 951T549 1116Q631 1116 694 1088T807 1001Q835 1052 874 1078T961 1104Q1042 1104 1081 1047T1120 870V221Q1120 102 1081 44T961 -14Q907
-14 870 13T807 98ZM381 549Q381 430 439 358T590 285Q681 285 739 358T797 549Q797 663 739 735T590 807Q498 807 440 736T381 549Z" />
<glyph unicode="b" glyph-name="b" horiz-adv-x="1233" d="M428 551Q428 429 487 355T641 281Q734 281 794 356T854 551Q854 673 795 749T641 825Q547 825 488 750T428 551ZM434 1032Q487 1078 550 1101T688 1124Q897 1124 1040 959T1184 545Q1184 311 1037 146T688
-20Q608 -20 541 8T426 90Q396 38 358 12T272 -14Q190 -14 151 44T111 221V1327Q111 1447 150 1505T272 1563Q354 1563 394 1505T434 1327V1032Z" />
<glyph unicode="c" glyph-name="c" horiz-adv-x="973" d="M47 545Q47 800 200 959T602 1118Q763 1118 863 1061T963 911Q963 852 925 813T829 774Q804 774 728 798T602 823Q502 823 441 748T379 551Q379 424 442 352T614 279Q667 279 740 303T836 328Q889 328
925 288T961 188Q961 99 852 36T582 -27Q344 -27 196 131T47 545Z" />
<glyph unicode="d" glyph-name="d" horiz-adv-x="1233" d="M379 551Q379 431 439 356T592 281Q685 281 744 355T803 551Q803 674 745 749T592 825Q498 825 439 749T379 551ZM807 90Q757 36 691 8T545 -20Q342 -20 195 147T47 555Q47 795 192 959T545 1124Q620
1124 682 1102T799 1032V1327Q799 1447 838 1505T961 1563Q1041 1563 1080 1505T1120 1327V221Q1120 101 1081 44T961 -14Q913 -14 874 12T807 90Z" />
<glyph unicode="e" glyph-name="e" horiz-adv-x="1147" d="M375 666H801Q795 748 735 803T592 858Q510 858 451 806T375 666ZM379 455Q390 364 454 313T623 262Q714 262 825 314T963 367Q1020 367 1056 332T1092 242Q1092 138 947 55T606 -29Q367 -29 207 134T47
543Q47 790 202 955T590 1120Q814 1120 965 965T1116 586Q1116 513 1083 484T956 455H379Z" />
<glyph unicode="f" glyph-name="f" horiz-adv-x="719" d="M504 1075H551Q647 1075 701 1037T756 932Q756 863 704 828T551 793H504V221Q504 103 463 45T338 -14Q256 -14 216 44T176 221V793H164Q79 793 31 830T-18 932Q-18 998 30 1034T176 1075Q176 1084 175
1102T174 1130Q174 1339 261 1451T510 1563Q609 1563 666 1520T723 1401Q723 1342 690 1311T576 1268Q529 1260 517 1242T504 1147V1075Z" />
<glyph unicode="g" glyph-name="g" horiz-adv-x="1223" d="M807 135Q754 59 681 22T514 -16Q318 -16 183 145T47 545Q47 786 193 951T549 1116Q631 1116 694 1088T807 1001Q833 1049 871 1076T950 1104Q1033 1104 1072 1047T1112 870V221Q1112 42 1095 -58T1036
-225Q965 -344 841 -405T545 -467Q336 -467 204 -400T72 -231Q72 -170 111 -130T211 -90Q240 -90 350 -133T557 -176Q677 -176 743 -105T809 96Q809 102 808 115T807 135ZM381 545Q381 424 440 349T592 274Q685 274 745 349T805 545Q805 662 745 735T592 809Q499
809 440 736T381 545Z" />
<glyph unicode="h" glyph-name="h" horiz-adv-x="1206" d="M434 1008Q486 1062 550 1086T711 1110Q902 1110 1003 1001T1104 684V221Q1104 102 1064 44T942 -14Q860 -14 820 44T780 221V586Q780 721 740 778T606 836Q518 836 476 777T434 590V221Q434 102 394
44T272 -14Q190 -14 151 44T111 221V1327Q111 1447 150 1505T272 1563Q354 1563 394 1504T434 1327V1008Z" />
<glyph unicode="i" glyph-name="i" horiz-adv-x="563" d="M96 1376Q96 1453 151 1508T283 1563Q359 1563 413 1508T467 1376Q467 1298 414 1244T283 1190Q204 1190 150 1244T96 1376ZM442 221Q442 101 403 44T283 -14Q201 -14 161 44T121 221V870Q121 989 160
1046T283 1104Q364 1104 403 1047T442 870V221Z" />
<glyph unicode="j" glyph-name="j" horiz-adv-x="563" d="M96 1376Q96 1453 151 1508T283 1563Q359 1563 413 1508T467 1376Q467 1298 414 1244T283 1190Q204 1190 150 1244T96 1376ZM442 -215Q442 -335 403 -393T283 -451Q201 -451 161 -393T121 -215V870Q121
989 160 1046T283 1104Q364 1104 403 1047T442 870V-215Z" />
<glyph unicode="k" glyph-name="k" horiz-adv-x="1053" d="M434 733L709 1018Q753 1064 793 1085T874 1106Q931 1106 970 1069T1010 981Q1010 943 988 902T928 825L711 625L1012 270Q1045 231 1060 194T1075 115Q1075 59 1032 21T924 -18Q877 -18 836 6T756 82L434
512V221Q434 101 394 42T272 -18Q191 -18 151 41T111 221V1327Q111 1447 150 1505T272 1563Q354 1563 394 1504T434 1327V733Z" />
<glyph unicode="l" glyph-name="l" horiz-adv-x="563" d="M121 1327Q121 1447 161 1505T283 1563Q363 1563 402 1505T442 1327V221Q442 101 403 44T283 -14Q201 -14 161 44T121 221V1327Z" />
<glyph unicode="m" glyph-name="m" horiz-adv-x="1798" d="M111 221V870Q111 990 151 1049T272 1108Q319 1108 357 1082T426 1001Q476 1056 539 1082T684 1108Q788 1108 868 1070T1006 956Q1079 1037 1155 1072T1331 1108Q1504 1108 1600 997T1696 684V221Q1696
102 1656 44T1534 -14Q1452 -14 1413 43T1374 221V586Q1374 713 1339 772T1227 831Q1143 831 1104 773T1065 590V221Q1065 102 1025 44T903 -14Q821 -14 781 44T741 221V586Q741 714 706 772T596 831Q512 831 473 773T434 590V221Q434 102 394 44T272 -14Q190 -14
151 44T111 221Z" />
<glyph unicode="n" glyph-name="n" horiz-adv-x="1206" d="M111 221V870Q111 989 150 1046T272 1104Q321 1104 359 1079T426 1001Q478 1058 546 1084T711 1110Q902 1110 1003 1001T1104 684V221Q1104 102 1064 44T942 -14Q860 -14 820 44T780 221V586Q780 721
740 778T606 836Q518 836 476 777T434 590V221Q434 102 394 44T272 -14Q190 -14 151 44T111 221Z" />
<glyph unicode="o" glyph-name="o" horiz-adv-x="1188" d="M381 549Q381 425 440 350T594 274Q689 274 748 350T807 549Q807 668 747 743T594 819Q500 819 441 744T381 549ZM47 545Q47 797 201 959T594 1122Q833 1122 986 960T1139 545Q1139 292 986 130T594 -33Q356
-33 202 130T47 545Z" />
<glyph unicode="p" glyph-name="p" horiz-adv-x="1233" d="M428 541Q428 417 487 342T641 266Q736 266 795 342T854 541Q854 660 794 735T641 811Q548 811 488 736T428 541ZM434 -215Q434 -335 394 -393T272 -451Q190 -451 151 -393T111 -215V870Q111 989 150
1046T272 1104Q321 1104 359 1079T426 1001Q476 1056 543 1084T692 1112Q900 1112 1042 950T1184 545Q1184 303 1039 134T688 -35Q615 -35 553 -12T434 59V-215Z" />
<glyph unicode="q" glyph-name="q" horiz-adv-x="1233" d="M803 541Q803 662 744 736T592 811Q499 811 439 736T379 541Q379 418 438 342T592 266Q687 266 745 341T803 541ZM799 -215V59Q744 12 681 -11T543 -35Q338 -35 193 134T47 545Q47 787 189 949T541 1112Q622
1112 689 1084T807 1001Q836 1053 874 1078T961 1104Q1042 1104 1081 1047T1120 870V-215Q1120 -334 1081 -392T961 -451Q878 -451 839 -393T799 -215Z" />
<glyph unicode="r" glyph-name="r" horiz-adv-x="778" d="M111 221V870Q111 989 150 1046T272 1104Q321 1104 359 1079T426 1001Q476 1055 532 1082T645 1110Q712 1110 760 1063T809 950Q809 853 631 788Q567 765 535 750Q474 721 454 686T434 557V221Q434 102
394 44T272 -14Q190 -14 151 44T111 221Z" />
<glyph unicode="s" glyph-name="s" horiz-adv-x="891" d="M420 -31Q247 -31 134 38T20 209Q20 270 56 312T143 354Q194 354 293 307T442 260Q482 260 507 279T532 326Q532 374 377 436Q363 442 357 444Q179 518 114 590T49 774Q49 923 163 1022T453 1122Q611 1122
721 1055T831 897Q831 840 793 801T698 762Q661 762 573 801T438 840Q405 840 385 825T365 784Q365 739 493 690Q553 667 588 651Q733 586 794 514T856 338Q856 180 733 75T420 -31Z" />
<glyph unicode="t" glyph-name="t" horiz-adv-x="682" d="M176 793H164Q79 793 31 830T-18 932Q-18 998 30 1034T176 1075V1217Q176 1336 216 1394T338 1452Q419 1452 458 1394T498 1217V1075H526Q622 1075 675 1037T729 932Q729 863 678 828T524 793H498V221Q498
101 459 44T338 -14Q256 -14 216 44T176 221V793Z" />
<glyph unicode="u" glyph-name="u" horiz-adv-x="1186" d="M104 440V870Q104 989 144 1046T266 1104Q347 1104 386 1047T426 870V506Q426 377 465 324T592 270Q680 270 719 323T758 506V870Q758 989 797 1046T920 1104Q1001 1104 1040 1047T1079 870V440Q1079
210 954 89T592 -33Q355 -33 230 88T104 440Z" />
<glyph unicode="v" glyph-name="v" horiz-adv-x="948" d="M291 141L10 856Q1 881 -3 900T-8 944Q-8 1012 36 1058T147 1104Q208 1104 247 1067T313 946L489 385L664 967Q684 1033 722 1066T815 1100Q883 1100 925 1057T967 942Q967 919 961 893T942 836L670 131Q635
41 594 7T485 -27Q415 -27 373 7T291 141Z" />
<glyph unicode="w" glyph-name="w" horiz-adv-x="1550" d="M1251 967Q1270 1031 1309 1065T1403 1100Q1471 1100 1512 1057T1554 942Q1554 923 1549 900T1530 836L1282 131Q1251 45 1209 9T1098 -27Q1025 -27 975 16T903 141L770 655L645 131Q627 57 579 15T461
-27Q387 -27 344 10T266 141L10 857Q1 883 -3 904T-8 944Q-8 1012 36 1058T147 1104Q209 1104 249 1065T313 946L483 356L621 948Q637 1019 676 1056T770 1094Q832 1094 874 1056T934 944L1081 365L1251 967Z" />
<glyph unicode="x" glyph-name="x" horiz-adv-x="1010" d="M514 344L285 70Q248 25 216 6T145 -14Q82 -14 36 33T-10 145Q-10 182 2 211T57 287L326 582L100 811Q71 842 55 876T39 942Q39 1006 84 1055T190 1104Q228 1104 261 1088T324 1036L520 809L700 1030Q728
1064 764 1085T831 1106Q899 1106 948 1059T997 946Q997 916 979 881T926 807L713 580L965 295Q1011 244 1025 210T1040 135Q1040 74 997 30T893 -14Q852 -14 819 5T745 70L514 344Z" />
<glyph unicode="y" glyph-name="y" horiz-adv-x="985" d="M702 975Q727 1042 761 1073T846 1104Q918 1104 961 1063T1004 950Q1004 927 997 899T977 838L485 -330Q454 -404 422 -432T344 -461Q270 -461 227 -419T184 -305Q184 -278 191 -250T211 -194L344 94L18
854Q10 872 6 893T2 944Q2 1012 47 1058T158 1104Q216 1104 252 1071T322 948L504 461L702 975Z" />
<glyph unicode="z" glyph-name="z" horiz-adv-x="915" d="M748 299Q842 299 896 259T950 147Q950 75 898 38T745 0H158Q61 0 25 23T-12 100Q-12 130 0 161T37 223L479 797H201Q106 797 52 836T-2 944Q-2 1015 50 1052T203 1090H721Q844 1090 884 1068T924 991Q924
962 908 928T858 850L428 299H748Z" />
<glyph unicode="{" glyph-name="braceleft" horiz-adv-x="1024" d="M883 1477V1268Q874 1268 858 1269T836 1270Q735 1270 700 1232T664 1069V829Q664 681 619 619T457 530Q574 503 619 442T664 233V-8Q664 -131 699 -169T836 -207Q842 -207 858 -206T883 -205V-414Q869
-414 844 -415T807 -416Q707 -416 640 -404T526 -367Q469 -333 446 -276T422 -76V176Q422 313 371 370T199 428Q193 428 179 427T158 426V635Q165 635 179 634T199 633Q319 633 370 691T422 887V1137Q422 1280 445 1338T526 1430Q573 1455 640 1467T807 1479Q819
1479 844 1478T883 1477Z" />
<glyph unicode="|" glyph-name="bar" horiz-adv-x="1024" d="M410 1565H616V-483H410V1565Z" />
<glyph unicode="}" glyph-name="braceright" horiz-adv-x="1024" d="M143 1477H211Q321 1477 388 1465T500 1427Q557 1395 580 1336T604 1137V885Q604 748 655 691T827 633Q833 633 847 634T868 635V426H831Q706 426 655 370T604 176V-76Q604 -219 581 -277T500
-367Q453 -392 386 -404T219 -416Q207 -416 182 -415T143 -414V-205Q152 -205 168 -206T190 -207Q291 -207 326 -169T362 -8V231Q362 381 407 442T569 530Q452 557 407 619T362 829V1071Q362 1193 327 1231T190 1270Q184 1270 168 1269T143 1268V1477Z" />
<glyph unicode="~" glyph-name="asciitilde" horiz-adv-x="1706" d="M1530 803V582Q1426 511 1334 478T1151 444Q1105 444 1059 452T967 475Q943 483 896 500Q677 575 563 575Q478 575 386 538T178 418V639Q285 711 382 746T565 782Q682 782 856 724Q859 723 860
723Q878 717 915 704Q1070 649 1155 649Q1240 649 1330 686T1530 803Z" />
</font>
</defs>
</svg>
